<svg id="Layer_1" data-name="Layer 1" xmlns="http://www.w3.org/2000/svg" viewBox="0 0 38.06 38.06"><defs><style>.cls-1{fill:#222221;}.cls-2{fill:#fff;}</style></defs><title>instagram</title><path class="cls-1" d="M421.16,316.57h0a19,19,0,0,1-19-19h0a19,19,0,0,1,19-19h0a19,19,0,0,1,19,19h0A19,19,0,0,1,421.16,316.57Z" transform="translate(-402.13 -278.51)"/><path class="cls-2" d="M421.16,289c2.78,0,3.11,0,4.21.06a6,6,0,0,1,1.94.36,3.24,3.24,0,0,1,1.2.78,3.2,3.2,0,0,1,.78,1.2,6,6,0,0,1,.36,1.94c.05,1.1.06,1.43.06,4.22s0,3.11-.06,4.21a6,6,0,0,1-.36,1.94,3.2,3.2,0,0,1-.78,1.2,3.24,3.24,0,0,1-1.2.78,6,6,0,0,1-1.94.36c-1.1.05-1.43.06-4.21.06s-3.12,0-4.22-.06a6,6,0,0,1-1.94-.36,3.41,3.41,0,0,1-1.2-.78,3.32,3.32,0,0,1-.78-1.2,6,6,0,0,1-.36-1.94c-.05-1.1-.06-1.43-.06-4.21s0-3.12.06-4.22a6,6,0,0,1,.36-1.94,3.32,3.32,0,0,1,.78-1.2,3.41,3.41,0,0,1,1.2-.78,6,6,0,0,1,1.94-.36c1.1-.05,1.43-.06,4.22-.06m0-1.88c-2.84,0-3.19,0-4.31.06a7.59,7.59,0,0,0-2.53.49,5.21,5.21,0,0,0-1.85,1.2,5.12,5.12,0,0,0-1.2,1.85,7.8,7.8,0,0,0-.49,2.53c0,1.12-.06,1.47-.06,4.31s0,3.19.06,4.3a7.8,7.8,0,0,0,.49,2.53,5.29,5.29,0,0,0,3.05,3.05,7.59,7.59,0,0,0,2.53.49c1.12,0,1.47.06,4.31.06s3.19,0,4.3-.06a7.54,7.54,0,0,0,2.53-.49,5.29,5.29,0,0,0,3.05-3.05,7.54,7.54,0,0,0,.49-2.53c.05-1.11.06-1.47.06-4.3s0-3.19-.06-4.31a7.54,7.54,0,0,0-.49-2.53,5,5,0,0,0-1.2-1.85,5.12,5.12,0,0,0-1.85-1.2,7.54,7.54,0,0,0-2.53-.49c-1.11-.05-1.47-.06-4.3-.06" transform="translate(-402.13 -278.51)"/><path class="cls-2" d="M421.16,292.18a5.36,5.36,0,1,0,5.35,5.36,5.36,5.36,0,0,0-5.35-5.36m0,8.83a3.48,3.48,0,1,1,3.47-3.47,3.47,3.47,0,0,1-3.47,3.47" transform="translate(-402.13 -278.51)"/><path class="cls-2" d="M428,292a1.26,1.26,0,1,1-1.25-1.26A1.25,1.25,0,0,1,428,292" transform="translate(-402.13 -278.51)"/></svg>