<svg id="Layer_1" data-name="Layer 1" xmlns="http://www.w3.org/2000/svg" xmlns:xlink="http://www.w3.org/1999/xlink" viewBox="0 0 38.06 38.06"><defs><style>.cls-1{fill:#222221;}.cls-2{fill:#fff;}</style><symbol id="likedin" data-name="likedin" viewBox="0 0 38.06 38.06"><path class="cls-1" d="M19,38.06h0A19,19,0,0,1,0,19H0A19,19,0,0,1,19,0h0a19,19,0,0,1,19,19h0A19,19,0,0,1,19,38.06Z"/><rect class="cls-2" x="10.4" y="14.79" width="3.94" height="12.72"/><path class="cls-2" d="M12.35,13.12A2.35,2.35,0,1,0,10,10.77,2.34,2.34,0,0,0,12.35,13.12Z"/><path class="cls-2" d="M20.64,20.83C20.64,19,21.46,18,23,18s2.14,1,2.14,2.85v6.68H29.1v-8c0-3.41-1.93-5.06-4.63-5.06a4.42,4.42,0,0,0-3.83,2.1V14.79H16.86V27.51h3.78Z"/></symbol></defs><title>linkedin</title><use width="38.06" height="38.06" xlink:href="#likedin"/></svg>