<svg id="Layer_1" data-name="Layer 1" xmlns="http://www.w3.org/2000/svg" viewBox="0 0 457.49 453.26"><defs><style>.cls-1{fill:#028000;}.cls-2{fill:#f2f2f2;}.cls-3{fill:#fff;}</style></defs><title>logo-mario</title><path class="cls-1" d="M184.8,532c4-12,8.56-23.86,11.9-36.05,6.46-23.62,16.41-45.29,32-64.42,5.26-6.48,10.52-11.3,18.75-14.63,22.36-9.06,44.15-19.61,65.77-30.37,8.06-4,15-10.23,23-15.77-5.74-2.68-10.68-4.88-15.54-7.27-3.64-1.8-7.06-3.79-6.77-8.88.05-.83-2.2-2.26-3.57-2.56a5.76,5.76,0,0,0-3.93,1.23c-.3.21.84,2.12.87,3.27.07,2.26.56,5.07-.56,6.6-.72,1-4.31.66-6.06-.2-1.5-.74-3.48-3.69-3-4.62,2.35-5-1.14-11.14,3.33-15.5,4.31-4.2.86-8.75.41-13.05-.68-6.39-1.36-13.08-8.87-15.79A42.79,42.79,0,0,1,282,309l6.67-1.43c.25-1.66,1.16-4.09.8-6.32-.52-3.25-2-5.41-6.21-3.25-5.11,2.6-9,1.18-11.3-3.42a27.93,27.93,0,0,1-3,3.86A6.4,6.4,0,0,1,258.56,295c-1-5.16-1.47-10.41-2.47-15.56-.37-1.86-1.62-3.54-2.48-5.32l9.35-6.76c-4.72-1.07-6.6-7.76-12.8-5.34-.24.09-1.85-2-2-3.2-.15-1.52.09-4,1-4.5,1.92-1,4.39-1.09,6.64-1.43,1.9-.28,4.48.31,5.62-.73a84.51,84.51,0,0,0,8.77-10c.28-.35-.39-2-1-2.46-3.61-2.4-7.33-4.63-11.07-6.83a7.84,7.84,0,0,0-2.3-.57l2.9-5.2-.8-.77-10.59,6.53-.5-.6a60.54,60.54,0,0,1,4.4-4.65c.65-.57,2.66-.41,2.71-.76.92-7.29,8.48-7.91,12.11-12.35a5.75,5.75,0,0,0,.53-5.05c-2.08-4.42-1-9.27,3.66-11.43,5.59-2.57,9.38-8.41,16.45-8.43,2,0,4-2.26,7.1-4.12.2-6.93,7.15-5.35,13.05-6l-3.34-7.13-.63.95c-.94-.51-2.18-.81-2.75-1.59-1-1.38-1.19-3.59-2.42-4.44-1-.65-4-.25-4.36.54-2,3.87-3.66,2.45-5.52.15-1.64-2-3-2.15-3.69.63-.94,4-3.64,2.23-5.83,1.91s-4.14-.89-6.16-1.34l3.68-5,4.76,3.66c4.22-6.18,11.05-5.14,17-5.57,4.46-.32,8.82.72,11.35-4.38.49-1,2.48-1.2,3.18-2.19a7.9,7.9,0,0,0,1.57-4.43c-.07-2-1-3.93-1.74-6.83-2,0-5.3-.77-7.88.22s-4.4,3.74-6.64,5.78c-2.36-1.9-4.29-3.45-6.22-5l.62-1,6.59,2.88c.42-1.67,1.36-3.42,1.16-5-1-8.32.35-10.08,8.89-10.61.48,0,1,0,1.49,0-2.4-5.18-1.43-10.49,3.2-13.43,1.42-.9,4.17.33,7.29.7a14.63,14.63,0,0,1,2.67-2.73,13.59,13.59,0,0,1,3.4-1.48c-4.58-5-9.23-9.6-13.38-14.64-3-3.69-2.71-10,.21-13.37,1,.67,2.89,1.23,3.05,2.09,1,5.45,5.81,6.89,9.57,8.81,3.59,1.84,8.81,3.9,11.91,2.57,6.4-2.74,8,1.2,10.43,4.91.51.78.6,1.82,2.23,3.14.76-2.21,2.68-4.82,2.08-6.56-2.48-7.15-3.35-7.44-10.44-7.31-.65-1.81-1.23-3.48-1.87-5.13S339,86.08,338.58,85l-14.06-5.24c7.22-3.21,13,2.52,19.84,2.4-.74,1.35-1.27,2.18-1.67,3.06-1.36,3-1.06,4.54,2.9,4.67,2.5.09,4.91,1.79,7.43,2.54,3.42,1,6.91,1.78,10.38,2.66l.49-1.86-10.37-4c4.85-5.3,5.73-5.34,8-1.46l10.21,3.12c0-.42-.12-1.6-.31-4,3,1.55,6.31,2.21,7.81,4.22,2.12,2.85,3.41,4.87,7.73,4.32s6.13,2.86,5.92,8.08c2.88-.35,2.88-.35,2.21-6.41h9.53l-3.36,2.19c7.91,3,8.72,2.66,11.7-3.21.66-1.29,3.48-2.08,5.28-2,2,0,3.92,1.33,6.39,2.26-.26-1-.41-1.58-.54-2.14-.33-1.49-.66-3-1-4.46,1.67-.22,3.34-.49,5-.64,1.88-.16,3.8,0,5.66-.33,3.56-.55,5.12.93,5.82,4.4a11.51,11.51,0,0,0,3.07,5.79,57.93,57.93,0,0,0,9,7.51c2.21,1.49,5,2.11,7.47,3.25,6.1,2.84,10.33,6.75,9.69,14.42-.33,4,3.58,6.81,6,4.6,5-4.52,9.13-1.06,13.45.49,3.71,1.33,5.33.32,6.61-3.14,1.42-3.86,3.83-7.37,6-10.92a2.58,2.58,0,0,1,2.47-.48c.77.63,1.65,2,1.42,2.8-1.12,3.63-2.05,7.52-4.08,10.63-3.92,6-6,11.7-2.34,18.73,1.53,2.94.87,7,2.33,10,1.82,3.76,4.74,7,7.31,10.37a2.42,2.42,0,0,0,2.2.65,11,11,0,0,1,12.73,2c2.07,8.83,3.74,15.91,5.46,23.25,4.39-.65,8.1-.74,8.13,4.41l8.76,1.09c-3,5.52-9.07.43-13,4.4,12.55,3.7,21.87,12,31.25,21.33L558,228.6v-6.84c-4.64,3.26-6,9.53-2.13,13.16s6.35,6.8,3.69,12.58l1.49-.28,1.43-3.19c4.09.6-1.59,13.38-8.13,18.28a38,38,0,0,1-4.69,2.56l-1.83-2.76c-1.34,1.73-3,3.08-3.49,4.76-.36,1.35.5,3.27,1.32,4.64a44.67,44.67,0,0,0,5.45,7.71c1.65,1.75,4.1,2.71,6,4.23,1.28,1,2.88,2.23,3.25,3.64,1.37,5.18,1.51,5.39,6.3,3.07A70.76,70.76,0,0,1,572,297.6c.39.72-1,2.38-2.11,4.95-.86-3.2-1.31-4.85-1.76-6.55-1.69.83-1.68.83-1.65,8.64,0,3.37,0,6.75,0,10.6l-5.31-3.57c-.67,1.26-1.48,2.81-2.65,5.05l-3.8-5.86c-1.84,5.18-3.28,9.27-4.73,13.36.91-5.74.87-5.85-3.76-8.67-1,1.42-2,2.89-3.08,4.31-1.85,2.47-3.69,3.32-5.81.16a4.47,4.47,0,0,0-2.68-1.22c-1.79-.35-3.62-.48-6.52-.83a42.5,42.5,0,0,0-2,4.71c-.56,1.82-.13,4.67-1.27,5.47a67.1,67.1,0,0,1-11.06,5.78c-.48.22-1.64-.79-2.35-1.39-1.94-1.62-3.8-3.32-5.7-5l-1.21.85c1.26,3.36,3.54,6.72,3.57,10.09,0,3-5.31,4.36-8.86,2.85-2.3,3.43-4.39,7.09-7.07,10.25a6.2,6.2,0,0,1-5,2c-4.91-.68-9.62-2.24-11.86,4.45-.42,1.25-3.13,1.74-4.37,2.38,2.87,3.39,5.84,7.35,9.29,10.83a28.57,28.57,0,0,0,7.67,5.37,525.1,525.1,0,0,0,83.49,31.8c4.73,1.36,8.73,2.73,11,7.32a6.21,6.21,0,0,0,1.62,1.89c16.31,13.67,26.31,31.89,34.56,50.82,8.77,20.13,15.71,41,23.42,61.62a9.08,9.08,0,0,1,.26,2ZM474,225.06l1-.23c.14-1.06.64-2.22.37-3.17-3.16-11.13-6.44-22.23-9.7-33.33a2.61,2.61,0,0,0-.55-.83c-5.41-6.57-10.76-13.2-16.32-19.64-.83-1-2.67-1.14-4.08-1.53-3.77-1-7.55-2.05-11.36-3-3.52-.84-7.11-2.28-10.62-2.13-9.25.37-18.47,1.39-27.7,2.3a15.94,15.94,0,0,0-6.27,1.62,152.49,152.49,0,0,0-13.9,9c-2.56,1.87-5.4,4.08-6.68,6.81-1.93,4.13-2.59,8.86-3.84,13.32a19,19,0,0,1-1.71,5.1c-1.94,3.06-4.6,5.7-6.32,8.86-2.56,4.69-4.55,9.69-6.78,14.56l1.33.73c2.12-1.86,4.81-3.36,6.25-5.64,3.62-5.68,6.39-11.91,10.08-17.53,1.43-2.18,4.43-3.33,6.72-5l1,1.37-5.68,6.94c5,.58,6.63-6.8,11.76-3.12-3.25,2.48-6.26,4.7-9.19,7-4.14,3.3-4.42,6.06-1.21,10a8.2,8.2,0,0,1,.83,2c5.67-5.77,12.57-7.32,19.66-8.85,9.29-2,12.4,4.77,15.76,10.82l6.61-3.34,1.38,1.35-3.9,8,3.84.43c-.95,7.71-5.17,11.93-10.83,11L407,231.9l-10.9-2.05.28-1,7.23-1.44-.27-2.34-25.17-1.9-.62,2.55,7.25,2.82C378,229.81,372,231.28,366,232.1c-10.81,1.48-13.47,8.32-15.58,17.36-1,4.15.95,8.93.2,13.18-2.27,12.78-3,25.14,5.26,36.26,1.27,1.7,3.11,3,4.69,4.43l1.19-1.07c1,6.42,4.68,10.65,10.9,13.81.2-4,.37-7.42.53-10.64l4.28,1.62c1.31,2.86,1.78,5.68,3.44,7.23,6,5.64,11.31,13,21.24,11.58.59-.08,1.24.49,1.89.58,3.67.51,7.47,1.82,11,1.29,7.86-1.2,15.85.62,23.81-2.79a26,26,0,0,0,9.57-6.73c.31-.34.67-.62,1.29-1.19.42,1.49.75,2.69,1.09,3.93,8.61-4.34,12.39-7,13.7-9.95,2.3-5.17,5-10.23,6.54-15.64,2.12-7.62,6.59-15.16,2.52-23.58-.44-.92.11-2.79.84-3.71,5.45-6.93,5.44-14.61,3.49-22.65-.41-1.71-.62-3.47-1.1-6.23-.48,2.21-.74,3.41-1,4.49-9.63-6.59-18-14.92-29-16.51-1.36-2.22-2-4.53-3.35-5.09s-3.3.81-4.72,1.24l3.3,7.31-8.12-3.48c0,1.53,0,2.15,0,2.77,0,1.17-.07,2.35-.1,3.52-1.17-.67-2.93-1.06-3.39-2.05-1.5-3.23-2.53-6.68-3.62-9.72l13.11-8.23c-.74-3.26-1.21-5.31-1.68-7.36,2-.25,4-.54,5.94-.74.83-.08,1.67.06,2.5.06h13.91l-16.39,9.79c11.88-.1,18.28,6.77,22.83,16.45.79,1.66,3.9,2.23,6.7,3.7-2-6.65-3.22-12.13-5.36-17.22-1.18-2.82-3.89-5-5.94-7.48l4.18-5.07Q470.24,215.26,474,225.06ZM387.37,353.52c-2.12-.22-5,.36-6.33-.82a110.52,110.52,0,0,1-13-13.45c-4.07-5.1-7.25-10.9-11.13-16.16-1.09-1.49-4.21-3.42-4.79-3-2.1,1.55-4.9,4-4.93,6.16-.12,8.78-2.87,17.94,2.59,26.24a5.52,5.52,0,0,1,.41,3.88c-1.32,5.57,1.44,8.77,5.92,11.3,13.24,7.47,27.94,10.19,42.63,10.53,19.77.46,37.18-8.15,53.13-19.13a20.62,20.62,0,0,0,7.73-11.63c1.3-6.16.33-12.81.33-19.5l-3,4.39v-8.29a74.56,74.56,0,0,0-4.25,6.42c-4.29,8.39-11.25,14.18-18.65,19.61-3,2.23-5.88,1.84-9.36.93a197.3,197.3,0,0,0-20.34-3.93,77.85,77.85,0,0,0-12.21-.77,10,10,0,0,0-5.43,1.66C386.19,348.38,387,350.76,387.37,353.52Zm-17.1-232.18,10.08-5.58c-1-1.63-2.89-3.45-3.27-5.55-.87-4.84-3.68-5.38-7.08-4.43l-4.77-6-7.91,3.34C361.63,109.18,370.2,111.26,370.27,121.34Zm-35.6,169.55c2.47-2.94,4.64-4.43,5.11-6.33.77-3.11-3.14-6.83-6.69-6.64-2.67.14-6.77.27-5.63,4.19C328.31,285,331.54,287.24,334.67,290.89ZM486.89,287l-1.42-.42c-.41.68-.83,1.36-1.32,2.18l-3.24-3.85c-1.86,2.13-3.79,3.78-5,5.85-1.71,3-.36,5.72,2.78,5.79,2.18,0,4.87-1.74,6.46-3.49C486.41,291.62,486.36,289,486.89,287ZM543,316.79v-7.74c-3.42,1.1-5.4.83-5.09-3.37.11-1.38-1.1-2.87-1.71-4.3l-2.3.93,1.7,6.83-3.54,5.62C539.67,311.29,539.67,311.29,543,316.79ZM267.66,237l4.22-6.91c-3.74-.29-7.61-4.84-9.85,0C260.32,233.72,265.05,235.17,267.66,237ZM537,241.14l3.67,4.7c1.08-1.71,2.74-3.32,3-5.15.16-1-2-2.36-3.13-3.55ZM331.4,255.51c-5.53,3.4-6.24,7.55-2.32,10.56C329.81,262.75,330.48,259.68,331.4,255.51Zm53.36-141c-2.83,3.28-3.42,5.56-.21,6.89,1,.4,2.64-.92,4-1.45Zm-52.61,17.37,7.47,1.32-6.69-8.65C332.62,127.46,332.4,129.48,332.15,131.85Zm219.17,96.56c1.82-6.84-1.72-8.31-7.26-8.82.4,3.7,1.37,5.67,5.26,3.52Z" transform="translate(-184.8 -78.74)"/><path class="cls-2" d="M565.16,225.29c7.15,3,0,8.75,2.85,12.71h4.45l.23.79-4,2.5C561.93,237.9,563.82,231.64,565.16,225.29Z" transform="translate(-184.8 -78.74)"/><path class="cls-2" d="M248,235.15l6.67,2.42c-1.23,2.11,1.09,6.53-3.61,6.29C246.06,243.6,248.14,239.29,248,235.15Z" transform="translate(-184.8 -78.74)"/><path class="cls-3" d="M474,225.06q-3.72-9.78-7.4-19.49l-4.18,5.07c2.05,2.49,4.76,4.66,5.94,7.48,2.14,5.09,3.36,10.57,5.36,17.22-2.8-1.47-5.91-2-6.7-3.7-4.55-9.68-11-16.55-22.83-16.45l16.39-9.79H446.63c-.83,0-1.67-.14-2.5-.06-2,.2-4,.49-5.94.74.47,2,.94,4.1,1.68,7.36l-13.11,8.23c1.09,3,2.12,6.49,3.62,9.72.46,1,2.22,1.38,3.39,2.05,0-1.17.07-2.35.1-3.52,0-.62,0-1.24,0-2.77l8.12,3.48-3.3-7.31c1.42-.43,3.46-1.77,4.72-1.24s2,2.87,3.35,5.09c11.06,1.59,19.39,9.92,29,16.51.23-1.08.49-2.28,1-4.49.48,2.76.69,4.52,1.1,6.23,1.95,8,2,15.72-3.49,22.65-.73.92-1.28,2.79-.84,3.71,4.07,8.42-.4,16-2.52,23.58-1.5,5.41-4.24,10.47-6.54,15.64-1.31,3-5.09,5.61-13.7,9.95-.34-1.24-.67-2.44-1.09-3.93-.62.57-1,.85-1.29,1.19a26,26,0,0,1-9.57,6.73c-8,3.41-15.95,1.59-23.81,2.79-3.52.53-7.32-.78-11-1.29-.65-.09-1.3-.66-1.89-.58-9.93,1.38-15.21-5.94-21.24-11.58-1.66-1.55-2.13-4.37-3.44-7.23l-4.28-1.62c-.16,3.22-.33,6.6-.53,10.64-6.22-3.16-9.88-7.39-10.9-13.81l-1.19,1.07c-1.58-1.46-3.42-2.73-4.69-4.43-8.25-11.12-7.53-23.48-5.26-36.26.75-4.25-1.16-9-.2-13.18,2.11-9,4.77-15.88,15.58-17.36,6.07-.82,12.06-2.29,18.84-3.61l-7.25-2.82.62-2.55,25.17,1.9.27,2.34-7.23,1.44-.28,1L407,231.9,403.94,239c5.66,1,9.88-3.25,10.83-11l-3.84-.43,3.9-8-1.38-1.35-6.61,3.34c-3.36-6-6.47-12.82-15.76-10.82-7.09,1.53-14,3.08-19.66,8.85a8.2,8.2,0,0,0-.83-2c-3.21-3.92-2.93-6.68,1.21-10,2.93-2.33,5.94-4.55,9.19-7-5.13-3.68-6.72,3.7-11.76,3.12l5.68-6.94-1-1.37c-2.29,1.62-5.29,2.77-6.72,5-3.69,5.62-6.46,11.85-10.08,17.53-1.44,2.28-4.13,3.78-6.25,5.64l-1.33-.73c2.23-4.87,4.22-9.87,6.78-14.56,1.72-3.16,4.38-5.8,6.32-8.86a19,19,0,0,0,1.71-5.1c1.25-4.46,1.91-9.19,3.84-13.32,1.28-2.73,4.12-4.94,6.68-6.81a152.49,152.49,0,0,1,13.9-9,15.94,15.94,0,0,1,6.27-1.62c9.23-.91,18.45-1.93,27.7-2.3,3.51-.15,7.1,1.29,10.62,2.13,3.81.9,7.59,1.91,11.36,3,1.41.39,3.25.57,4.08,1.53,5.56,6.44,10.91,13.07,16.32,19.64a2.61,2.61,0,0,1,.55.83c3.26,11.1,6.54,22.2,9.7,33.33.27,1-.23,2.11-.37,3.17Zm-24.85,60.29c-7.17-3.28-13.49-8.46-19.92-8.61-11.09-.25-22.45-3.38-33.54.93-3.42,1.32-4.76-.56-4-4.2.25-1.19.1-3.37-.52-3.65-1.44-.65-3.72-1.1-4.85-.37-1.41.91-3.07,3.39-2.71,4.63.53,1.82,2.77,3.14,3.6,4-.64,1.69-2.26,4.14-1.71,4.81,4.53,5.55,9.58,10.65,17.4,11,1.14.05,3.38-1.23,3.33-1.61-.68-4.38,2.58-5,5.47-6.63l-18.42-1.44c.49-1,.78-2.56,1.4-2.7A97.47,97.47,0,0,1,409,278.84c5-.36,10.14.34,15.21.34,4.91,0,9.72,0,12.95,4.56.53.74,1.11,2.13.78,2.63a4.24,4.24,0,0,1-2.76,1.48,30.43,30.43,0,0,1-4.6.07l2.23,8.6C437.13,297.21,437.89,296.74,449.11,285.35ZM402.3,249.61,419,255C415.49,246.69,408.06,243.42,402.3,249.61Zm-15.68-44.29c4.25,1.06,7.86,2.29,11.56,2.73,1.75.21,3.69-1.11,5.54-1.73-1.53-1.33-2.87-3.07-4.64-3.86a9.57,9.57,0,0,0-5.77-.64C391.21,202.31,389.35,203.83,386.62,205.32Zm39.17,45.86c3.71,4.54,7.3,2.7,11.08.74C433.71,247.54,429.62,247.28,425.79,251.18Zm17.72,25.28c.81,1.12,1.21,2.27,2,2.59a32,32,0,0,0,6.11,1.72,7.73,7.73,0,0,0,.86-2.64,21.83,21.83,0,0,0-5.38-2.42C446.13,275.46,444.94,276.13,443.51,276.46Zm-37.58-20.64,0-1-10.56-5.28c.66,1.56,1,4.22,2.2,4.78C400.11,255.4,403.13,255.37,405.93,255.82Z" transform="translate(-184.8 -78.74)"/><path class="cls-3" d="M387.37,353.52c-.35-2.76-1.18-5.14-.61-5.54a10,10,0,0,1,5.43-1.66,77.85,77.85,0,0,1,12.21.77A197.3,197.3,0,0,1,424.74,351c3.48.91,6.32,1.3,9.36-.93,7.4-5.43,14.36-11.22,18.65-19.61a74.56,74.56,0,0,1,4.25-6.42v8.29l3-4.39c0,6.69,1,13.34-.33,19.5a20.62,20.62,0,0,1-7.73,11.63c-16,11-33.36,19.59-53.13,19.13-14.69-.34-29.39-3.06-42.63-10.53-4.48-2.53-7.24-5.73-5.92-11.3a5.52,5.52,0,0,0-.41-3.88c-5.46-8.3-2.71-17.46-2.59-26.24,0-2.15,2.83-4.61,4.93-6.16.58-.44,3.7,1.49,4.79,3,3.88,5.26,7.06,11.06,11.13,16.16a110.52,110.52,0,0,0,13,13.45C382.36,353.88,385.25,353.3,387.37,353.52Z" transform="translate(-184.8 -78.74)"/><path class="cls-3" d="M370.27,121.34c-.07-10.08-8.64-12.16-12.95-18.27l7.91-3.34,4.77,6c3.4-1,6.21-.41,7.08,4.43.38,2.1,2.26,3.92,3.27,5.55Z" transform="translate(-184.8 -78.74)"/><path class="cls-3" d="M334.67,290.89c-3.13-3.65-6.36-5.87-7.21-8.78-1.14-3.92,3-4.05,5.63-4.19,3.55-.19,7.46,3.53,6.69,6.64C339.31,286.46,337.14,288,334.67,290.89Z" transform="translate(-184.8 -78.74)"/><path class="cls-3" d="M486.89,287c-.53,2.06-.48,4.66-1.74,6.06-1.59,1.75-4.28,3.53-6.46,3.49-3.14-.07-4.49-2.83-2.78-5.79,1.21-2.07,3.14-3.72,5-5.85l3.24,3.85c.49-.82.91-1.5,1.32-2.18Z" transform="translate(-184.8 -78.74)"/><path class="cls-3" d="M543,316.79c-3.33-5.5-3.33-5.5-10.94-2l3.54-5.62-1.7-6.83,2.3-.93c.61,1.43,1.82,2.92,1.71,4.3-.31,4.2,1.67,4.47,5.09,3.37Z" transform="translate(-184.8 -78.74)"/><path class="cls-3" d="M267.66,237c-2.61-1.84-7.34-3.29-5.63-7,2.24-4.79,6.11-.24,9.85,0Z" transform="translate(-184.8 -78.74)"/><path class="cls-3" d="M537,241.14l3.57-4c1.12,1.19,3.29,2.55,3.13,3.55-.29,1.83-2,3.44-3,5.15Z" transform="translate(-184.8 -78.74)"/><path class="cls-3" d="M331.4,255.51c-.92,4.17-1.59,7.24-2.32,10.56C325.16,263.06,325.87,258.91,331.4,255.51Z" transform="translate(-184.8 -78.74)"/><path class="cls-3" d="M384.76,114.48l3.77,5.44c-1.34.53-3,1.85-4,1.45C381.34,120,381.93,117.76,384.76,114.48Z" transform="translate(-184.8 -78.74)"/><path class="cls-3" d="M332.15,131.85c.25-2.37.47-4.39.78-7.33l6.69,8.65Z" transform="translate(-184.8 -78.74)"/><path class="cls-3" d="M551.32,228.41l-2-5.3c-3.89,2.15-4.86.18-5.26-3.52C549.6,220.1,553.14,221.57,551.32,228.41Z" transform="translate(-184.8 -78.74)"/><path class="cls-1" d="M449.11,285.35c-11.22,11.39-12,11.86-16.28,11.17l-2.23-8.6a30.43,30.43,0,0,0,4.6-.07,4.24,4.24,0,0,0,2.76-1.48c.33-.5-.25-1.89-.78-2.63-3.23-4.52-8-4.56-12.95-4.56-5.07,0-10.17-.7-15.21-.34a97.47,97.47,0,0,0-14.38,2.66c-.62.14-.91,1.7-1.4,2.7l18.42,1.44c-2.89,1.66-6.15,2.25-5.47,6.63.05.38-2.19,1.66-3.33,1.61-7.82-.36-12.87-5.46-17.4-11-.55-.67,1.07-3.12,1.71-4.81-.83-.84-3.07-2.16-3.6-4-.36-1.24,1.3-3.72,2.71-4.63,1.13-.73,3.41-.28,4.85.37.62.28.77,2.46.52,3.65-.76,3.64.58,5.52,4,4.2,11.09-4.31,22.45-1.18,33.54-.93C435.62,276.89,441.94,282.07,449.11,285.35Z" transform="translate(-184.8 -78.74)"/><path class="cls-2" d="M402.3,249.61c5.76-6.19,13.19-2.92,16.7,5.35Z" transform="translate(-184.8 -78.74)"/><path class="cls-2" d="M386.62,205.32c2.73-1.49,4.59-3,6.69-3.5a9.57,9.57,0,0,1,5.77.64c1.77.79,3.11,2.53,4.64,3.86-1.85.62-3.79,1.94-5.54,1.73C394.48,207.61,390.87,206.38,386.62,205.32Z" transform="translate(-184.8 -78.74)"/><path class="cls-2" d="M425.79,251.18c3.83-3.9,7.92-3.64,11.08.74C433.09,253.88,429.5,255.72,425.79,251.18Z" transform="translate(-184.8 -78.74)"/><path class="cls-2" d="M443.51,276.46c1.43-.33,2.62-1,3.56-.75a21.83,21.83,0,0,1,5.38,2.42,7.73,7.73,0,0,1-.86,2.64,32,32,0,0,1-6.11-1.72C444.72,278.73,444.32,277.58,443.51,276.46Z" transform="translate(-184.8 -78.74)"/><path class="cls-2" d="M405.93,255.82c-2.8-.45-5.82-.42-8.32-1.55-1.24-.56-1.54-3.22-2.2-4.78L406,254.77Z" transform="translate(-184.8 -78.74)"/></svg>