<svg id="Layer_1" data-name="Layer 1" xmlns="http://www.w3.org/2000/svg" viewBox="0 0 38.06 38.06"><defs><style>.cls-1{fill:#222221;}.cls-2{fill:#fff;}</style></defs><title>twitter</title><path class="cls-1" d="M420.58,316.57h0a19,19,0,0,1-19-19h0a19,19,0,0,1,19-19h0a19,19,0,0,1,19,19h0A19,19,0,0,1,420.58,316.57Z" transform="translate(-401.55 -278.51)"/><path class="cls-2" d="M410.44,303.91a11.84,11.84,0,0,0,18.21-10.51,8.63,8.63,0,0,0,2.07-2.15,8.28,8.28,0,0,1-2.39.65,4.15,4.15,0,0,0,1.83-2.3,8.27,8.27,0,0,1-2.64,1,4.16,4.16,0,0,0-7.09,3.79,11.8,11.8,0,0,1-8.57-4.34,4.16,4.16,0,0,0,1.28,5.55,4.13,4.13,0,0,1-1.88-.52,4.15,4.15,0,0,0,3.34,4.13,4.09,4.09,0,0,1-1.88.07,4.14,4.14,0,0,0,3.88,2.89A8.33,8.33,0,0,1,410.44,303.91Z" transform="translate(-401.55 -278.51)"/></svg>